<svg width="36" height="36" viewBox="0 0 36 36" fill="none" xmlns="http://www.w3.org/2000/svg">
<rect width="25.875" height="24.75" transform="translate(4.5 5.625)" fill="white"/>
<path fill-rule="evenodd" clip-rule="evenodd" d="M0 5.625C0 2.5184 2.5184 0 5.625 0H30.375C33.4816 0 36 2.5184 36 5.625V30.375C36 33.4816 33.4816 36 30.375 36H5.625C2.5184 36 0 33.4816 0 30.375V5.625ZM9 18C9 13.05 13.05 9 18 9C22.95 9 27 13.05 26.8875 17.55C26.8875 22.5 22.8375 26.55 17.8875 26.55C16.9875 26.55 16.0875 26.4375 15.3 26.2125C15.6375 25.65 15.975 24.975 16.2 24.3C16.3125 23.85 16.875 21.825 16.875 21.825C17.2125 22.3875 18.1125 22.95 19.125 22.95C22.05 22.95 23.9625 20.25 23.9625 16.7625C23.9625 14.0625 21.7125 11.5875 18.225 11.5875C13.95 11.5875 11.8125 14.625 11.8125 17.2125C11.8125 18.7875 12.375 20.1375 13.6125 20.7C13.8375 20.8125 13.95 20.7 14.0625 20.475C14.175 20.3625 14.2875 19.9125 14.2875 19.8C14.367 19.6409 14.3341 19.5943 14.2682 19.5011C14.2409 19.4625 14.208 19.4159 14.175 19.35C13.8375 18.9 13.6125 18.3375 13.6125 17.55C13.6125 15.3 15.3 13.275 18 13.275C20.3625 13.275 21.7125 14.7375 21.7125 16.7625C21.7125 19.4625 20.5875 21.6 18.9 21.6C17.8875 21.6 17.2125 20.8125 17.4375 19.9125C17.5314 19.4429 17.6841 18.9537 17.8302 18.4858C18.0341 17.8328 18.225 17.2213 18.225 16.7625C18.225 15.975 17.775 15.4125 16.9875 15.4125C16.0875 15.4125 15.3 16.425 15.3 17.775C15.3 18.675 15.6375 19.2375 15.6375 19.2375C15.6375 19.2375 14.7375 23.4 14.5125 24.1875C14.4 24.8624 14.4 25.5374 14.4 26.2123C11.25 24.8623 9 21.7125 9 18Z" fill="#222222"/>
</svg>
