<svg width="32" height="32" viewBox="0 0 32 32" fill="none" xmlns="http://www.w3.org/2000/svg">
<g clip-path="url(#clip0_308_252)">
<path d="M0.666667 30.6667V30.4693L3.616 26H28.352L31.328 30.4667V30.6667H32V32H0V30.6667H0.666667ZM2.13333 30.6667H29.8587L27.636 27.3333H4.33333L2.13333 30.6667Z" fill="white"/>
<path d="M29.3332 20V22.6666H2.66656V20C2.66656 12.86 8.27857 7.03062 15.3332 6.68262H16.6666C23.7212 7.03062 29.3332 12.86 29.3332 20ZM27.9999 20C27.9999 13.372 22.6279 7.99995 15.9999 7.99995C9.3719 7.99995 3.9999 13.372 3.9999 20V21.3333H27.9999V20Z" fill="white"/>
<path d="M15.3332 6.68267V1.33333H10.6666V0H21.3332V1.33333H16.6666V6.68267H15.3332Z" fill="white"/>
</g>
<defs>
<clipPath id="clip0_308_252">
<rect width="32" height="32" fill="white"/>
</clipPath>
</defs>
</svg>
